PathFileType	4	(x/y/z)	S01_PSF_T09.trc
DataRate	CameraRate	NumFrames	NumMarkers	Units	OrigDataRate	OrigDataStartFrame	OrigNumFrames
240	240	4	51	mm	240	352	402
Frame#	Time	Sternum			R.Acromium			L.Acromium			Top.Head			R.ASIS			L.ASIS			R.PSIS			L.PSIS			R.Great.Tro			L.Great.Tro			R.Iliac.Crest			L.Iliac.Crest			V.Sacral			R.Thigh.Upper.Post			R.Thigh.Lower.Ant			R.Thigh.Lower.Post			R.Thigh.Upper.Ant			R.Knee.Lat			R.Knee.Med			R.Shank.Upper.Post			R.Shank.Lower.Ant			R.Shank.Lower.Post			R.Shank.Upper.Ant			R.Ankle.Lat			R.Ankle.Med			R.Heel.Upper			R.Heel.Med			R.Heel.Lat			R.Toe.Lat			R.Toe.Med			R.Toe.Tip			L.Thigh.Upper.Post			L.Thigh.Lower.Ant			L.Thigh.Lower.Post			L.Thigh.Upper.Ant			L.Knee.Lat			L.Knee.Med			L.Shank.Upper.Post			L.Shank.Lower.Ant			L.Shank.Lower.Post			L.Shank.Upper.Ant			L.Ankle.Lat			L.Ankle.Med			L.Heel.Upper			L.Heel.Med			L.Heel.Lat			L.Toe.Lat			L.Toe.Med			L.Toe.Tip			Cervical.Spine			Back			
		X1	Y1	Z1	X2	Y2	Z2	X3	Y3	Z3	X4	Y4	Z4	X5	Y5	Z5	X6	Y6	Z6	X7	Y7	Z7	X8	Y8	Z8	X9	Y9	Z9	X10	Y10	Z10	X11	Y11	Z11	X12	Y12	Z12	X13	Y13	Z13	X14	Y14	Z14	X15	Y15	Z15	X16	Y16	Z16	X17	Y17	Z17	X18	Y18	Z18	X19	Y19	Z19	X20	Y20	Z20	X21	Y21	Z21	X22	Y22	Z22	X23	Y23	Z23	X24	Y24	Z24	X25	Y25	Z25	X26	Y26	Z26	X27	Y27	Z27	X28	Y28	Z28	X29	Y29	Z29	X30	Y30	Z30	X31	Y31	Z31	X32	Y32	Z32	X33	Y33	Z33	X34	Y34	Z34	X35	Y35	Z35	X36	Y36	Z36	X37	Y37	Z37	X38	Y38	Z38	X39	Y39	Z39	X40	Y40	Z40	X41	Y41	Z41	X42	Y42	Z42	X43	Y43	Z43	X44	Y44	Z44	X45	Y45	Z45	X46	Y46	Z46	X47	Y47	Z47	X48	Y48	Z48	X49	Y49	Z49	X50	Y50	Z50	X51	Y51	Z51	

352	1.4625	545.65	1288.3	322.01	420.93	1539.5	492.31	424.76	1556.3	162.85	440.72	1863	322.63	484.36	1041.2	473.65	501.35	1033.8	207.37	253.53	1074.5	372.76	254.45	1076.7	268.97	408.59	989.99	555.46	393.17	984.53	126.89	392.78	1139.9	531.43	394.93	1115.9	128.72	239.89	1039.7	316.56	515.37	695.05	545.23	609.11	657.46	526.61	553.76	615.91	526.5	573.18	739.3	543.19	593.02	566.65	526.4	616.22	570.77	380.53	546.5	407.26	537.62	617.83	329.2	504.69	548.44	337.35	525.29	611.12	400.61	522.36	569.57	132.38	490.71	614.03	145.87	404.87	513.14	96.044	421.42	536.02	70.919	393.86	522.66	65.586	456.38	700.6	69.295	539.22	747.04	86.288	425.01	798.68	112.45	488.11	313.99	715.49	155.97	385.94	632.24	164.01	308.11	626.37	174.49	383.95	725.32	142	337.83	532.56	168.97	354.99	534.22	313.81	262.43	397.04	157.38	311.97	301.99	187.19	254.04	320.02	164.7	321.42	377.8	175.63	216.65	109.83	211.29	240.49	119.1	308.27	143	79.616	256.36	151.86	54.323	290.43	151.78	53.498	227.48	361.99	39.09	197.15	384.61	45.603	319.34	449.44	53.178	270.01	337.85	1603.3	326.82	246.35	1295.7	331.83
353	1.4667	550.83	1287.1	322.35	426.32	1538.3	492.75	430.05	1555.3	163.3	445.95	1862	323.28	489.43	1039.9	473.98	506.38	1032.7	207.65	258.61	1073.6	373.02	259.5	1076	269.25	413.54	988.62	555.64	397.95	983.89	126.98	397.86	1138.6	531.77	400.07	1114.9	128.98	244.88	1038.9	316.76	519.74	693.4	544.74	613.46	655.83	525.94	558.08	614.28	525.76	577.54	737.66	542.74	598.05	565.59	525.57	620.54	569.44	379.45	555.21	405.27	537.49	628.35	328.83	504.76	558.81	335.37	525.38	619.97	400.12	522.15	585.11	130.67	491.58	629.06	144.95	405.62	529.59	92.491	422.51	553.03	67.882	395.03	539.92	62.477	457.58	717.85	71.281	540.14	763.67	88.983	425.83	814.67	116.79	488.73	316.86	715.55	155.95	388.27	631.84	163.99	310.4	626.46	174.39	386.89	724.93	142.02	339.39	532.47	168.72	356.62	533.9	313.74	263.28	397.14	157.32	312.52	301.87	186.98	254.61	320.16	164.64	322.24	377.67	175.41	216.68	109.89	211.38	240.63	119.16	308.28	143.03	79.707	256.48	151.89	54.391	290.53	151.79	53.606	227.59	362	39.049	197.09	384.62	45.588	319.31	449.45	53.122	269.97	343.17	1602.3	327.29	251.52	1294.7	332.26
354	1.4708	556.02	1285.9	322.7	431.73	1537.1	493.21	435.35	1554.2	163.77	451.19	1860.9	323.93	494.51	1038.6	474.31	511.41	1031.7	207.92	263.71	1072.6	373.29	264.56	1075.3	269.54	418.5	987.21	555.82	402.73	983.24	127.06	402.94	1137.2	532.13	405.22	1114	129.25	249.89	1038.1	316.96	524.08	691.68	544.28	617.78	654.12	525.28	562.37	612.6	525.06	581.89	735.95	542.32	603.05	564.49	524.78	624.77	568.02	378.38	563.86	403.32	537.37	638.73	328.51	504.82	569.09	333.47	525.48	628.73	399.65	521.94	600.46	129.13	492.42	643.87	144.21	406.31	545.85	89.189	423.57	569.84	65.103	396.16	557	59.623	458.74	734.82	73.415	540.96	779.97	91.822	426.55	830.33	121.21	489.24	319.79	715.58	155.95	390.66	631.41	163.97	312.76	626.51	174.33	389.88	724.52	142.02	341.04	532.36	168.48	358.36	533.56	313.69	264.2	397.23	157.28	313.13	301.75	186.79	255.24	320.3	164.59	323.13	377.52	175.21	216.71	109.97	211.48	240.77	119.23	308.3	143.06	79.812	256.61	151.94	54.472	290.63	151.81	53.727	227.7	362.01	39.009	197.03	384.64	45.57	319.27	449.47	53.058	269.94	348.5	1601.2	327.77	256.7	1293.7	332.71
355	1.475	561.23	1284.6	323.07	437.14	1535.9	493.68	440.66	1553.1	164.25	456.44	1859.7	324.59	499.61	1037.2	474.64	516.44	1030.6	208.2	268.81	1071.6	373.56	269.62	1074.5	269.82	423.49	985.74	555.99	407.53	982.56	127.15	408.02	1135.7	532.49	410.37	1113	129.51	254.9	1037.3	317.16	528.42	689.92	543.87	622.07	652.36	524.65	566.64	610.85	524.4	586.23	734.19	541.91	608.03	563.34	524.02	628.95	566.52	377.31	572.44	401.42	537.27	648.96	328.24	504.86	579.26	331.66	525.57	637.39	399.21	521.74	615.61	127.78	493.21	658.44	143.63	406.95	561.89	86.135	424.6	586.41	62.577	397.23	573.84	57.018	459.85	751.47	75.673	541.67	795.92	94.783	427.14	845.62	125.71	489.61	322.79	715.56	155.96	393.14	630.96	163.94	315.21	626.54	174.29	392.93	724.08	142.03	342.8	532.22	168.26	360.24	533.22	313.65	265.21	397.32	157.25	313.8	301.61	186.6	255.94	320.43	164.55	324.11	377.35	175.02	216.75	110.05	211.59	240.93	119.31	308.33	143.11	79.934	256.75	151.99	54.567	290.74	151.83	53.864	227.82	362.02	38.969	196.97	384.65	45.55	319.24	449.49	52.988	269.9	353.83	1600.1	328.27	261.88	1292.6	333.17
